<?xml version="1.0" standalone="no"?>
<!DOCTYPE svg PUBLIC "-//W3C//DTD SVG 20010904//EN"
 "http://www.w3.org/TR/2001/REC-SVG-20010904/DTD/svg10.dtd">
<svg version="1.0" xmlns="http://www.w3.org/2000/svg"
 width="121.000000pt" height="121.000000pt" viewBox="0 0 121.000000 121.000000"
 preserveAspectRatio="xMidYMid meet">

<g transform="translate(0.000000,121.000000) scale(0.100000,-0.100000)"
fill="#000000" stroke="none">
<path d="M448 1140 c-73 -21 -119 -44 -188 -95 -99 -73 -161 -166 -204 -310
-15 -52 -22 -178 -10 -197 4 -6 9 -29 11 -50 5 -55 62 -176 106 -222 20 -21
37 -40 37 -43 0 -7 66 -62 90 -75 14 -7 28 -17 31 -21 3 -5 42 -21 87 -36 345
-120 709 123 730 488 6 102 -9 171 -57 271 -44 91 -139 193 -224 240 -122 68
-278 87 -409 50z m283 -16 c163 -49 288 -162 352 -321 113 -285 -58 -622 -358
-702 -86 -23 -180 -22 -292 3 -82 18 -261 152 -279 208 -3 10 -9 18 -14 18 -5
0 -16 20 -26 45 -9 25 -21 45 -26 45 -5 0 -6 5 -3 10 3 6 2 10 -2 10 -5 0 -9
8 -10 18 -15 190 -15 210 2 277 29 116 76 192 174 279 57 50 130 90 208 111
69 19 208 18 274 -1z"/>
<path d="M570 1076 c0 -8 4 -17 8 -20 4 -2 8 4 8 15 0 10 -4 19 -8 19 -4 0 -8
-6 -8 -14z"/>
<path d="M646 1075 c-3 -8 -1 -15 4 -15 6 0 10 5 10 10 0 6 4 10 9 10 6 0 8
-9 6 -19 -3 -14 3 -20 26 -23 24 -4 29 -1 29 16 0 15 -3 17 -9 8 -12 -19 -24
-17 -33 7 -9 24 -33 28 -42 6z"/>
<path d="M417 1053 c-11 -10 13 -32 29 -26 20 8 17 33 -4 33 -10 0 -22 -3 -25
-7z m30 -9 c-3 -3 -12 -4 -19 -1 -8 3 -5 6 6 6 11 1 17 -2 13 -5z"/>
<path d="M785 1040 c-3 -5 -12 -7 -19 -4 -8 3 -17 1 -21 -5 -3 -6 0 -8 9 -5 9
3 16 -1 18 -12 2 -14 6 -12 15 9 12 26 11 37 -2 17z"/>
<path d="M380 1031 c0 -5 7 -15 17 -22 15 -13 15 -12 4 9 -12 23 -21 28 -21
13z"/>
<path d="M829 1007 c-14 -10 -14 -14 -3 -25 12 -11 15 -10 20 2 9 24 1 36 -17
23z"/>
<path d="M865 990 c-4 -6 -5 -10 -3 -11 25 -6 38 -6 38 1 0 12 -29 20 -35 10z"/>
<path d="M504 971 c-82 -20 -164 -77 -216 -151 -36 -50 -69 -154 -55 -170 9
-10 9 -11 0 -6 -10 5 -12 -7 -8 -51 4 -53 10 -94 15 -100 2 -2 3 -6 5 -10 17
-63 74 -134 143 -180 189 -127 440 -54 541 157 22 48 26 68 26 150 0 108 -11
141 -66 216 -89 121 -242 179 -385 145z m169 -74 c26 -16 47 -32 47 -36 0 -11
-100 -72 -120 -74 -9 0 -46 17 -83 38 -52 30 -64 42 -55 52 6 7 16 13 22 14 6
0 33 11 60 24 54 25 57 24 129 -18z m-149 -87 c37 -22 71 -40 73 -40 3 0 32
16 64 36 32 19 62 35 66 34 7 0 43 -161 37 -168 -1 -2 -19 4 -39 12 -50 21
-56 20 -46 -8 20 -52 82 -311 79 -330 -3 -18 -11 -21 -55 -23 -60 -3 -56 -8
-73 112 -6 44 -14 87 -17 95 -3 8 -7 35 -8 59 -4 45 -25 83 -25 46 -1 -34 -11
-99 -20 -130 -5 -16 -12 -55 -16 -85 -11 -94 -16 -100 -71 -94 -73 8 -72 7
-61 56 5 24 13 52 18 63 4 11 16 49 25 85 9 36 23 84 31 108 18 55 18 64 -3
58 -10 -3 -31 -8 -46 -12 l-28 -6 6 48 c7 56 25 124 34 124 4 0 37 -18 75 -40z
m-178 -202 c3 -4 -1 -5 -10 -4 -8 1 -18 5 -22 8 -3 4 1 5 10 4 8 -1 18 -5 22
-8z"/>
<path d="M900 945 c-11 -13 -9 -19 8 -35 12 -12 23 -16 27 -10 12 19 27 10 22
-11 -4 -16 -3 -19 5 -11 16 16 1 45 -21 39 -21 -5 -37 29 -17 37 8 3 8 5 0 5
-6 1 -17 -6 -24 -14z"/>
<path d="M978 863 c7 -3 16 -2 19 1 4 3 -2 6 -13 5 -11 0 -14 -3 -6 -6z"/>
<path d="M170 814 c0 -8 5 -12 10 -9 6 4 8 11 5 16 -9 14 -15 11 -15 -7z"/>
<path d="M994 814 c-18 -14 -18 -15 4 -4 12 6 22 13 22 15 0 8 -5 6 -26 -11z"/>
<path d="M993 771 c1 -16 5 -18 19 -10 24 13 23 29 -1 29 -13 0 -19 -6 -18
-19z"/>
<path d="M150 765 c0 -8 4 -15 10 -15 5 0 7 7 4 15 -4 8 -8 15 -10 15 -2 0 -4
-7 -4 -15z"/>
<path d="M1037 752 c2 -3 -7 -12 -19 -19 l-23 -14 25 7 c32 8 36 12 23 23 -5
5 -8 6 -6 3z"/>
<path d="M1025 700 c-3 -5 -2 -10 4 -10 5 0 13 5 16 10 3 6 2 10 -4 10 -5 0
-13 -4 -16 -10z"/>
<path d="M1016 663 c-4 -9 -1 -21 5 -27 9 -8 10 -7 4 3 -5 9 -1 19 10 28 16
11 16 13 3 13 -9 0 -19 -8 -22 -17z"/>
<path d="M1046 643 c-6 -14 -5 -15 5 -6 7 7 10 15 7 18 -3 3 -9 -2 -12 -12z"/>
<path d="M125 630 c-3 -6 1 -7 9 -4 18 7 21 14 7 14 -6 0 -13 -4 -16 -10z"/>
<path d="M1040 605 c0 -8 -7 -18 -15 -21 -20 -8 -19 -24 2 -24 9 0 13 3 10 7
-4 3 0 14 9 24 10 11 12 19 5 24 -6 3 -11 -1 -11 -10z"/>
<path d="M180 425 c8 -10 10 -16 3 -12 -17 11 -23 -6 -9 -25 9 -12 15 -13 26
-4 16 12 23 46 10 46 -5 0 -17 3 -27 7 -16 6 -17 5 -3 -12z"/>
<path d="M970 421 c0 -11 -6 -21 -12 -21 -7 0 -5 -5 5 -11 9 -5 17 -17 17 -26
0 -13 3 -14 12 -5 7 7 21 12 31 12 15 0 17 3 8 14 -6 7 -8 22 -4 31 5 15 3 17
-12 12 -9 -4 -24 -2 -31 4 -11 9 -14 7 -14 -10z"/>
<path d="M345 224 c-9 -15 -12 -23 -6 -20 11 7 35 46 28 46 -3 0 -12 -12 -22
-26z"/>
<path d="M810 244 c0 -5 5 -15 12 -22 9 -9 9 -15 0 -24 -10 -10 -15 -10 -22 2
-6 8 -8 21 -5 28 2 6 1 12 -4 12 -16 0 -19 -13 -9 -36 13 -28 35 -28 52 -2 8
14 7 22 -7 35 -9 9 -17 13 -17 7z"/>
<path d="M422 213 c-7 -2 -17 -14 -23 -26 -9 -20 -9 -20 4 -4 8 9 19 17 26 17
6 0 11 5 11 10 0 6 -1 10 -2 9 -2 0 -9 -3 -16 -6z"/>
<path d="M728 181 c-4 -28 -3 -28 17 -15 12 8 26 11 31 7 5 -5 0 2 -10 15 -25
29 -33 28 -38 -7z m27 9 c3 -5 1 -10 -4 -10 -6 0 -11 5 -11 10 0 6 2 10 4 10
3 0 8 -4 11 -10z"/>
<path d="M465 180 c-9 -28 2 -40 37 -40 22 0 31 5 35 21 4 16 8 17 14 7 7 -10
9 -9 9 5 0 23 -17 22 -30 -3 -6 -12 -21 -20 -36 -20 -23 0 -25 3 -20 25 8 30
0 34 -9 5z"/>
<path d="M654 187 c3 -10 6 -25 6 -33 0 -8 5 -14 10 -14 6 0 9 3 9 8 -3 19 2
23 15 12 13 -10 13 -8 3 14 -8 16 -14 21 -19 13 -6 -9 -11 -8 -19 3 -9 13 -10
12 -5 -3z"/>
<path d="M425 180 c-3 -5 -1 -10 4 -10 6 0 11 5 11 10 0 6 -2 10 -4 10 -3 0
-8 -4 -11 -10z"/>
<path d="M615 180 c-4 -6 -11 -8 -16 -5 -5 4 -8 -6 -8 -22 1 -17 3 -21 6 -10
5 20 14 22 33 5 12 -11 12 -10 1 4 -7 9 -10 22 -6 28 3 5 4 10 1 10 -3 0 -8
-5 -11 -10z"/>
</g>
</svg>
